<?xml version="1.0" encoding="UTF-8" standalone="no"?>
<!-- Created with Inkscape (http://www.inkscape.org/) -->

<svg
   xmlns:dc="http://purl.org/dc/elements/1.1/"
   xmlns:cc="http://creativecommons.org/ns#"
   xmlns:rdf="http://www.w3.org/1999/02/22-rdf-syntax-ns#"
   xmlns:svg="http://www.w3.org/2000/svg"
   xmlns="http://www.w3.org/2000/svg"
   xmlns:sodipodi="http://sodipodi.sourceforge.net/DTD/sodipodi-0.dtd"
   xmlns:inkscape="http://www.inkscape.org/namespaces/inkscape"
   width="226.77165"
   height="226.63837"
   viewBox="0 0 59.999998 59.964739"
   version="1.1"
   id="svg8"
   inkscape:version="0.92.3 (2405546, 2018-03-11)"
   sodipodi:docname="stack.svg">
  <defs
     id="defs2" />
  <sodipodi:namedview
     id="base"
     pagecolor="#ffffff"
     bordercolor="#666666"
     borderopacity="1.0"
     inkscape:pageopacity="0.0"
     inkscape:pageshadow="2"
     inkscape:zoom="1"
     inkscape:cx="101.03983"
     inkscape:cy="12.504053"
     inkscape:document-units="mm"
     inkscape:current-layer="layer1"
     showgrid="false"
     inkscape:snap-bbox="true"
     inkscape:snap-bbox-edge-midpoints="true"
     inkscape:bbox-paths="true"
     inkscape:snap-bbox-midpoints="true"
     inkscape:window-width="1366"
     inkscape:window-height="745"
     inkscape:window-x="-8"
     inkscape:window-y="-8"
     inkscape:window-maximized="1"
     units="px"
     fit-margin-top="0"
     fit-margin-left="0"
     fit-margin-right="0"
     fit-margin-bottom="0"
     inkscape:bbox-nodes="true"
     inkscape:object-paths="true"
     inkscape:snap-intersection-paths="true"
     inkscape:snap-smooth-nodes="true"
     inkscape:snap-global="true" />
  <metadata
     id="metadata5">
    <rdf:RDF>
      <cc:Work
         rdf:about="">
        <dc:format>image/svg+xml</dc:format>
        <dc:type
           rdf:resource="http://purl.org/dc/dcmitype/StillImage" />
        <dc:title></dc:title>
      </cc:Work>
    </rdf:RDF>
  </metadata>
  <g
     inkscape:label="Layer 1"
     inkscape:groupmode="layer"
     id="layer1"
     transform="translate(-2.7383224,-207.46344)">
    <g
       aria-label="DICE"
       transform="matrix(0.3164058,0,0,0.3164058,52.999366,41.632708)"
       style="font-style:normal;font-variant:normal;font-weight:normal;font-stretch:normal;font-size:40px;line-height:1.25;font-family:'Javanese Text';-inkscape-font-specification:'Javanese Text';letter-spacing:0px;word-spacing:0px;fill:#ffffff;fill-opacity:1;stroke:none"
       id="flowRoot1086" />
    <flowRoot
       xml:space="preserve"
       id="flowRoot1094"
       style="font-style:normal;font-variant:normal;font-weight:normal;font-stretch:normal;font-size:40px;line-height:1.25;font-family:'Javanese Text';-inkscape-font-specification:'Javanese Text';letter-spacing:0px;word-spacing:0px;fill:#000000;fill-opacity:1;stroke:none"><flowRegion
         id="flowRegion1096"><rect
           id="rect1098"
           width="64.453125"
           height="94.53125"
           x="80.859375"
           y="86.582184" /></flowRegion><flowPara
         id="flowPara1100" /></flowRoot>    <text
       xml:space="preserve"
       style="font-style:normal;font-variant:normal;font-weight:normal;font-stretch:normal;font-size:10.58333302px;line-height:1.25;font-family:'Microsoft YaHei';-inkscape-font-specification:'Microsoft YaHei';letter-spacing:0px;word-spacing:0px;fill:#000000;fill-opacity:1;stroke:none;stroke-width:0.26458332"
       x="115.46879"
       y="136.22067"
       id="text1121"><tspan
         sodipodi:role="line"
         id="tspan1119"
         x="115.46879"
         y="145.60962"
         style="font-style:normal;font-variant:normal;font-weight:normal;font-stretch:normal;font-family:'Microsoft YaHei';-inkscape-font-specification:'Microsoft YaHei';stroke-width:0.26458332" /></text>
    <g
       id="g1121"
       transform="matrix(1.0035705,0,0,1.0035705,-21.783084,0.10725039)">
      <path
         transform="matrix(0.26458333,0,0,0.26458333,-2.8572235e-6,204.39534)"
         id="path1108"
         d="M 113.00977,77.685547 A 108.33704,108.33704 0 0 0 101.64062,125.89844 108.33704,108.33704 0 0 0 209.97656,234.23438 108.33704,108.33704 0 0 0 318.31445,125.89844 108.33704,108.33704 0 0 0 209.97656,17.560547 a 108.33704,108.33704 0 0 0 -48.02148,11.371094 39.77653,39.608183 0 0 1 0.0117,0.0332 39.77653,39.608183 0 0 1 0.87109,3.863281 39.77653,39.608183 0 0 1 0.47852,3.931641 39.77653,39.608183 0 0 1 0.0996,2.800781 39.77653,39.608183 0 0 1 -0.19727,3.955078 39.77653,39.608183 0 0 1 -0.5957,3.914063 39.77653,39.608183 0 0 1 -0.98243,3.835937 39.77653,39.608183 0 0 1 -1.36328,3.71875 39.77653,39.608183 0 0 1 -1.73046,3.566406 39.77653,39.608183 0 0 1 -2.07813,3.375 39.77653,39.608183 0 0 1 -2.40625,3.150391 39.77653,39.608183 0 0 1 -2.70898,2.898437 39.77653,39.608183 0 0 1 -2.98829,2.613282 39.77653,39.608183 0 0 1 -3.23437,2.302734 39.77653,39.608183 0 0 1 -3.44922,1.96875 39.77653,39.608183 0 0 1 -3.62891,1.617187 39.77653,39.608183 0 0 1 -3.77343,1.25 39.77653,39.608183 0 0 1 -3.87891,0.865235 39.77653,39.608183 0 0 1 -3.94727,0.478515 39.77653,39.608183 0 0 1 -2.8125,0.09961 39.77653,39.608183 0 0 1 -3.9707,-0.199219 39.77653,39.608183 0 0 1 -3.93164,-0.591797 39.77653,39.608183 0 0 1 -2.72851,-0.693359 z M 210.7207,63.083984 a 8.1375553,8.1375553 0 0 1 0.0293,0 c 1.4411,0.01512 2.87981,0.05905 4.31445,0.13086 a 8.1375553,8.1375553 0 0 1 0.0137,0 c 0.8857,0.04535 1.76793,0.103024 2.64844,0.169922 0.78801,0.05253 1.57447,0.112097 2.35742,0.18164 a 8.1375553,8.1375553 0 0 1 0.0879,0.0078 c 0.83806,0.08391 1.67017,0.175738 2.5,0.279297 l 0.008,0.002 c 0.80168,0.09184 1.60136,0.190797 2.39453,0.300781 a 8.1375553,8.1375553 0 0 1 0.0801,0.01172 c 0.82176,0.122456 1.63898,0.256327 2.44922,0.398437 0.77529,0.128126 1.5446,0.264456 2.30859,0.410156 a 8.1375553,8.1375553 0 0 1 0.0876,0.0195 c 0.7764,0.157228 1.54609,0.322866 2.30859,0.498047 0.77206,0.169322 1.53583,0.3472 2.29297,0.535156 a 8.1375553,8.1375553 0 0 1 0.0898,0.02344 c 0.75402,0.196158 1.49927,0.402737 2.23632,0.617188 l 0.0449,0.0098 c 0.72041,0.202204 1.43111,0.413297 2.13476,0.632812 a 8.1375553,8.1375553 0 0 1 0.0977,0.03125 c 0.73371,0.238866 1.45663,0.486037 2.16992,0.744141 l 0.006,0.002 c 0.66184,0.230551 1.31499,0.468078 1.95898,0.714844 a 8.1375553,8.1375553 0 0 1 0.0176,0.0078 c 1.19239,0.460233 2.35427,0.948069 3.48047,1.464844 a 8.1375553,8.1375553 0 0 1 0.23633,0.113281 c 0.0434,0.02268 0.0856,0.04253 0.1289,0.06445 l -0.17968,-0.08594 c 1.14951,0.54187 2.26357,1.112639 3.33594,1.716797 a 8.1375553,8.1375553 0 0 1 0.0703,0.04102 c 0.68714,0.396397 1.35733,0.806557 2.00976,1.230469 l 0.0215,0.01563 c 0.39963,0.244913 0.79653,0.490976 1.18359,0.746094 a 8.1375553,8.1375553 0 0 1 0.21875,0.15039 c 0.72812,0.514545 1.43058,1.048077 2.10742,1.603516 0.25486,0.196535 0.51186,0.393763 0.75977,0.595703 a 8.1375553,8.1375553 0 0 1 0.23437,0.195312 c 0.74171,0.652045 1.44633,1.335455 2.11328,2.046876 l -0.26953,-0.275391 c 0.21578,0.209386 0.43007,0.421664 0.63868,0.636719 a 8.1375553,8.1375553 0 0 1 0.25195,0.273437 c 0.69868,0.789808 1.34908,1.6172 1.94336,2.484375 l -0.25,-0.345703 c 0.1364,0.178016 0.26889,0.357381 0.40039,0.539063 a 8.1375553,8.1375553 0 0 1 0.23437,0.341796 c 0.60906,0.938948 1.15352,1.923443 1.61524,2.951172 l -0.23047,-0.46875 c 0.0731,0.138331 0.1447,0.276136 0.21484,0.416016 a 8.1375553,8.1375553 0 0 1 0.20899,0.449219 c 0.42363,0.991332 0.76523,2.024784 1.02344,3.082031 0.006,0.0189 0.01,0.03774 0.0156,0.05664 a 8.1375553,8.1375553 0 0 1 0.13086,0.521485 c 0.13973,0.657675 0.14272,1.338219 0.21094,2.009765 A 8.1375553,8.1375553 0 0 1 265.44336,93.25 v 15.89258 a 8.1375553,8.1375553 0 0 1 -0.002,0.043 v 36.58789 15.89258 a 8.1375553,8.1375553 0 0 1 -0.29883,2.1875 c -0.61893,4.24286 -2.85074,8.05857 -5.79297,10.91015 -3.44815,3.34186 -7.81843,5.83127 -12.87695,7.86133 a 8.1375553,8.1375553 0 0 1 -0.006,0.004 c -20.25408,8.11373 -52.7303,8.11373 -72.98438,0 a 8.1375553,8.1375553 0 0 1 -0.006,-0.004 c -5.05852,-2.03006 -9.4288,-4.51947 -12.87695,-7.86133 -2.96429,-2.87293 -5.20915,-6.72433 -5.80664,-11.00586 a 8.1375553,8.1375553 0 0 1 -0.2832,-2.09179 v -15.89258 a 8.1375553,8.1375553 0 0 1 0.0273,-0.625 v -8.55469 a 8.1375553,8.1375553 0 0 1 -0.0273,-0.5293 v -15.89453 a 8.1375553,8.1375553 0 0 1 0.0273,-0.625 v -9.90234 a 8.1375553,8.1375553 0 0 1 -0.0254,-0.5 V 93.25 a 8.1375553,8.1375553 0 0 1 0.14453,-1.501953 c 0.0348,-0.37115 0.0425,-0.743769 0.0996,-1.111328 0.034,-0.266079 0.068,-0.533102 0.11328,-0.796875 a 8.1375553,8.1375553 0 0 1 0.0566,-0.294922 c 0.19918,-0.947263 0.47197,-1.87575 0.80664,-2.775391 0.0776,-0.224882 0.15489,-0.450394 0.24024,-0.671875 a 8.1375553,8.1375553 0 0 1 0.12304,-0.304687 c 0.36537,-0.844233 0.78895,-1.659473 1.25586,-2.445313 0.13882,-0.246425 0.27797,-0.493732 0.42578,-0.734375 a 8.1375553,8.1375553 0 0 1 0.15821,-0.24414 c 0.47927,-0.720945 0.99846,-1.414189 1.55078,-2.082032 0.2208,-0.278173 0.44548,-0.554776 0.67773,-0.824218 a 8.1375553,8.1375553 0 0 1 0.15625,-0.175782 c 0.54658,-0.598148 1.12121,-1.174198 1.72071,-1.730468 0.31086,-0.299717 0.62813,-0.592709 0.95312,-0.88086 a 8.1375553,8.1375553 0 0 1 0.1543,-0.134765 c 0.58857,-0.49595 1.19907,-0.973866 1.82812,-1.4375 0.3997,-0.305386 0.80658,-0.60594 1.22266,-0.898438 a 8.1375553,8.1375553 0 0 1 0.14453,-0.101562 c 0.60423,-0.40543 1.22601,-0.796985 1.86133,-1.177735 0.50886,-0.315968 1.02776,-0.625762 1.55664,-0.925781 a 8.1375553,8.1375553 0 0 1 0.0293,-0.01367 c 1.04336,-0.586167 2.12399,-1.142564 3.24023,-1.669922 a 8.1375553,8.1375553 0 0 1 0.041,-0.02344 c 10.42976,-4.854463 24.0181,-7.301507 37.64843,-7.208985 z m 54.58985,29.181641 c 0.017,0.318614 0.0993,0.630038 0.0996,0.949219 l -0.0527,-0.908203 z"
         style="opacity:1;fill:#7b43ac;fill-opacity:1;stroke:none;stroke-width:4.02739954;stroke-linejoin:round;stroke-miterlimit:4;stroke-dasharray:none;stroke-dashoffset:152.99526978;stroke-opacity:1"
         inkscape:connector-curvature="0" />
      <g
         transform="matrix(0.80547993,0,0,0.80547993,28.002597,55.857727)"
         id="g970">
        <path
           style="opacity:1;fill:#7b43ac;fill-opacity:1;stroke:none;stroke-width:0.36684787;stroke-linejoin:round;stroke-miterlimit:4;stroke-dasharray:none;stroke-dashoffset:152.99526978;stroke-opacity:0.91627909"
           d="m 34.434586,207.80391 a 15.547136,7.2359897 2.8014182e-6 0 0 -11.220502,2.11874 15.547136,7.2359897 2.8014182e-6 0 0 -0.897103,0.46199 15.547136,7.2359895 2.8014181e-6 0 0 -0.439767,0.26148 15.547136,7.2359897 2.8014182e-6 0 0 -0.512113,0.32401 15.547136,7.2359895 2.8014181e-6 0 0 -0.339514,0.2496 15.547136,7.2359897 2.8014182e-6 0 0 -0.47749,0.37517 15.547136,7.2359895 2.8014181e-6 0 0 -0.258382,0.23978 15.547136,7.2359897 2.8014182e-6 0 0 -0.419613,0.42116 15.547136,7.2359895 2.8014181e-6 0 0 -0.180868,0.22014 15.547136,7.2359897 2.8014182e-6 0 0 -0.349849,0.46871 15.547136,7.2359895 2.8014181e-6 0 0 -0.116789,0.20102 15.547136,7.2359897 2.8014182e-6 0 0 -0.259932,0.50591 15.547136,7.2359895 2.8014181e-6 0 0 -0.06666,0.18707 15.547136,7.2359897 2.8014182e-6 0 0 -0.155546,0.53382 15.547136,7.2359895 2.8014181e-6 0 0 -0.02946,0.2098 15.547136,7.2359897 2.8014182e-6 0 0 -0.04082,0.45527 15.547136,7.2359895 2.8014181e-6 0 0 0,0.002 h -0.0083 v 5.22035 h 0.0083 a 15.547133,6.2282432 3.040592e-6 0 0 4.543909,4.40439 15.547133,6.2282432 3.040592e-6 0 0 21.986771,0 15.547133,6.2282432 3.040592e-6 0 0 4.544425,-4.40439 h 0.0093 v -5.22035 h -0.0093 a 15.547136,7.2359897 2.8014182e-6 0 0 -10e-4,-0.009 15.547136,7.2359897 2.8014182e-6 0 0 -0.07545,-0.709 15.547136,7.2359895 2.8014181e-6 0 0 -0.0098,-0.0341 15.547136,7.2359897 2.8014182e-6 0 0 -0.217559,-0.67334 15.547136,7.2359895 2.8014181e-6 0 0 -0.04392,-0.0853 15.547136,7.2359897 2.8014182e-6 0 0 -0.334346,-0.6103 15.547136,7.2359895 2.8014181e-6 0 0 -0.08888,-0.11937 15.547136,7.2359897 2.8014182e-6 0 0 -0.435633,-0.55604 15.547136,7.2359895 2.8014181e-6 0 0 -0.151927,-0.15193 15.547136,7.2359897 2.8014182e-6 0 0 -0.509532,-0.49196 15.547136,7.2359895 2.8014181e-6 0 0 -0.256831,-0.20154 15.547136,7.2359897 2.8014182e-6 0 0 -0.539501,-0.41031 15.547136,7.2359895 2.8014181e-6 0 0 -0.375687,-0.23719 15.547136,7.2359897 2.8014182e-6 0 0 -0.545187,-0.33383 15.547136,7.2359895 2.8014181e-6 0 0 -0.922941,-0.47543 15.547136,7.2359895 2.8014181e-6 0 0 -0.03617,-0.0181 15.547136,7.2359897 2.8014182e-6 0 0 -0.990637,-0.41703 15.547136,7.2359895 2.8014181e-6 0 0 -0.596863,-0.21756 15.547136,7.2359897 2.8014182e-6 0 0 -0.632002,-0.21704 15.547136,7.2359895 2.8014181e-6 0 0 -0.654225,-0.19327 15.547136,7.2359897 2.8014182e-6 0 0 -0.673343,-0.18552 15.547136,7.2359895 2.8014181e-6 0 0 -0.686263,-0.16019 15.547136,7.2359897 2.8014182e-6 0 0 -0.711584,-0.154 15.547136,7.2359895 2.8014181e-6 0 0 -0.719336,-0.12764 15.547136,7.2359897 2.8014182e-6 0 0 -0.736907,-0.11937 15.547136,7.2359895 2.8014181e-6 0 0 -0.749824,-0.0946 15.547136,7.2359897 2.8014182e-6 0 0 -0.759126,-0.0848 15.547136,7.2359895 2.8014181e-6 0 0 -0.739492,-0.0574 15.547136,7.2359897 2.8014182e-6 0 0 -0.804601,-0.0512 15.547136,7.2359895 2.8014181e-6 0 0 -1.312066,-0.0393 z m -0.226859,2.01487 a 3.7388966,1.7401673 0 0 1 3.73879,1.73994 3.7388966,1.7401673 0 0 1 -3.73879,1.74047 3.7388966,1.7401673 0 0 1 3.73879,1.73994 3.7388966,1.7401673 0 0 1 3.73879,-1.73994 3.7388966,1.7401673 0 0 1 3.739306,1.73994 3.7388966,1.7401673 0 0 1 -3.739306,1.74046 3.7388966,1.7401673 0 0 1 -3.73879,-1.74046 3.7388966,1.7401673 0 0 1 -3.73879,1.74046 3.7388966,1.7401673 0 0 1 3.73879,1.73995 3.7388966,1.7401673 0 0 1 -3.73879,1.73994 3.7388966,1.7401673 0 0 1 -3.73879,-1.73994 3.7388966,1.7401673 0 0 1 3.73879,-1.73995 3.7388966,1.7401673 0 0 1 -3.73879,-1.74046 3.7388966,1.7401673 0 0 1 -3.73879,1.74046 3.7388966,1.7401673 0 0 1 -3.739306,-1.74046 3.7388966,1.7401673 0 0 1 3.739306,-1.73994 3.7388966,1.7401673 0 0 1 3.73879,1.73994 3.7388966,1.7401673 0 0 1 3.73879,-1.73994 3.7388966,1.7401673 0 0 1 -3.73879,-1.74047 3.7388966,1.7401673 0 0 1 3.73879,-1.73994 z"
           id="path897-0"
           inkscape:connector-curvature="0" />
        <path
           inkscape:connector-curvature="0"
           style="opacity:1;fill:#7b43ac;fill-opacity:1;stroke:none;stroke-width:0.36684787;stroke-linejoin:round;stroke-miterlimit:4;stroke-dasharray:none;stroke-dashoffset:152.99526978;stroke-opacity:0.91627909"
           d="m 34.433964,216.64744 a 15.547136,7.2359898 2.8014182e-6 0 1 1.324031,0.0399 15.547136,7.2359898 2.8014182e-6 0 0 -1.324031,-0.0399 z m 1.324031,0.0399 a 15.547136,7.2359898 2.8014182e-6 0 1 0.768761,0.0488 15.547136,7.2359898 2.8014182e-6 0 0 -0.768761,-0.0488 z m 0.768761,0.0488 a 15.547136,7.2359898 2.8014182e-6 0 1 0.766458,0.059 15.547136,7.2359898 2.8014182e-6 0 0 -0.766458,-0.059 z m 0.766458,0.059 a 15.547136,7.2359898 2.8014182e-6 0 1 0.760043,0.0851 15.547136,7.2359898 2.8014182e-6 0 0 -0.760043,-0.0851 z m 0.760043,0.0851 a 15.547136,7.2359898 2.8014182e-6 0 1 0.74376,0.0937 15.547136,7.2359898 2.8014182e-6 0 0 -0.74376,-0.0937 z m 0.74376,0.0937 a 15.547136,7.2359898 2.8014182e-6 0 1 0.734385,0.11911 15.547136,7.2359898 2.8014182e-6 0 0 -0.734385,-0.11911 z m 0.734385,0.11911 a 15.547136,7.2359898 2.8014182e-6 0 1 0.726983,0.12909 15.547136,7.2359898 2.8014182e-6 0 0 -0.726983,-0.12909 z m 0.726983,0.12909 a 15.547136,7.2359898 2.8014182e-6 0 1 0.705766,0.15291 15.547136,7.2359898 2.8014182e-6 0 0 -0.705766,-0.15291 z m 0.705766,0.15291 a 15.547136,7.2359898 2.8014182e-6 0 1 0.689155,0.16085 15.547136,7.2359898 2.8014182e-6 0 0 -0.689155,-0.16085 z m 0.689155,0.16085 a 15.547136,7.2359898 2.8014182e-6 0 1 0.674351,0.18603 15.547136,7.2359898 2.8014182e-6 0 0 -0.674351,-0.18603 z m 0.674351,0.18603 a 15.547136,7.2359898 2.8014182e-6 0 1 0.651982,0.19215 15.547136,7.2359898 2.8014182e-6 0 0 -0.651982,-0.19215 z m 0.651982,0.19215 a 15.547136,7.2359898 2.8014182e-6 0 1 0.622378,0.21371 15.547136,7.2359898 2.8014182e-6 0 0 -0.622378,-0.21371 z m 0.622378,0.21371 a 15.547136,7.2359898 2.8014182e-6 0 1 0.617113,0.22506 15.547136,7.2359898 2.8014182e-6 0 0 -0.617113,-0.22506 z m 0.617113,0.22506 a 15.547136,7.2359898 2.8014182e-6 0 1 0.981262,0.41313 15.547136,7.2359898 2.8014182e-6 0 0 -0.981262,-0.41313 z m 0.981262,0.41313 a 15.547136,7.2359898 2.8014182e-6 0 1 0.956264,0.49207 15.547136,7.2359898 2.8014182e-6 0 0 -0.956264,-0.49207 z m 0.956264,0.49207 a 15.547136,7.2359898 2.8014182e-6 0 1 0.554943,0.3403 15.547136,7.2359898 2.8014182e-6 0 0 -0.554943,-0.3403 z m 0.554943,0.3403 a 15.547136,7.2359898 2.8014182e-6 0 1 0.368259,0.23232 15.547136,7.2359898 2.8014182e-6 0 0 -0.368259,-0.23232 z m 0.368259,0.23232 a 15.547136,7.2359898 2.8014182e-6 0 1 0.535042,0.40677 15.547136,7.2359898 2.8014182e-6 0 0 -0.535042,-0.40677 z m 0.535042,0.40677 a 15.547136,7.2359898 2.8014182e-6 0 1 0.262502,0.20599 15.547136,7.2359898 2.8014182e-6 0 0 -0.262502,-0.20599 z m 0.262502,0.20599 a 15.547136,7.2359898 2.8014182e-6 0 1 0.499678,0.48232 15.547136,7.2359898 2.8014182e-6 0 0 -0.499678,-0.48232 z m 0.499678,0.48232 a 15.547136,7.2359898 2.8014182e-6 0 1 0.162008,0.16199 15.547136,7.2359898 2.8014182e-6 0 0 -0.162008,-0.16199 z m 0.162008,0.16199 a 15.547136,7.2359898 2.8014182e-6 0 1 0.429118,0.54811 15.547136,7.2359898 2.8014182e-6 0 0 -0.429118,-0.54811 z m 0.429118,0.54811 a 15.547136,7.2359898 2.8014182e-6 0 1 0.09474,0.12659 15.547136,7.2359898 2.8014182e-6 0 0 -0.09474,-0.12659 z m 0.09474,0.12659 a 15.547136,7.2359898 2.8014182e-6 0 1 0.334052,0.61051 15.547136,7.2359898 2.8014182e-6 0 0 -0.334052,-0.61051 z m 0.334052,0.61051 a 15.547136,7.2359898 2.8014182e-6 0 1 0.04326,0.0839 15.547136,7.2359898 2.8014182e-6 0 0 -0.04326,-0.0839 z m 0.04326,0.0839 a 15.547136,7.2359898 2.8014182e-6 0 1 0.216943,0.67108 15.547136,7.2359898 2.8014182e-6 0 0 -0.216943,-0.67108 z m 0.216943,0.67108 a 15.547136,7.2359898 2.8014182e-6 0 1 0.01101,0.0376 15.547136,7.2359898 2.8014182e-6 0 0 -0.01101,-0.0376 z m 0.01101,0.0376 a 15.547136,7.2359898 2.8014182e-6 0 1 0.07615,0.71713 15.547136,7.2359898 2.8014182e-6 0 0 -0.07615,-0.71713 z m 0.07615,0.71713 a 15.547136,7.2359898 2.8014182e-6 0 1 -4.543976,5.11655 15.547136,7.2359898 2.8014182e-6 0 1 -21.986976,0 15.547136,7.2359898 2.8014182e-6 0 1 -4.543976,-5.11746 15.547136,7.2359898 2.8014182e-6 0 0 0,8.8e-4 h -0.0081 v 5.22045 h 0.0082 a 15.547134,6.2282433 3.040592e-6 0 0 4.543812,4.40396 15.547134,6.2282433 3.040592e-6 0 0 21.986976,0 15.547134,6.2282433 3.040592e-6 0 0 4.543978,-4.40396 h 0.0097 v -5.22044 z m -31.074928,-8.8e-4 a 15.547136,7.2359898 2.8014182e-6 0 1 0.04178,-0.46212 15.547136,7.2359898 2.8014182e-6 0 0 -0.04178,0.46212 z m 0.04178,-0.46212 a 15.547136,7.2359898 2.8014182e-6 0 1 0.02779,-0.20124 15.547136,7.2359898 2.8014182e-6 0 0 -0.02779,0.20124 z m 0.02779,-0.20124 a 15.547136,7.2359898 2.8014182e-6 0 1 0.157075,-0.53948 15.547136,7.2359898 2.8014182e-6 0 0 -0.157075,0.53948 z m 0.157075,-0.53948 a 15.547136,7.2359898 2.8014182e-6 0 1 0.06513,-0.18264 15.547136,7.2359898 2.8014182e-6 0 0 -0.06513,0.18264 z m 0.06513,-0.18264 a 15.547136,7.2359898 2.8014182e-6 0 1 0.25905,-0.50478 15.547136,7.2359898 2.8014182e-6 0 0 -0.25905,0.50478 z m 0.25905,-0.50478 a 15.547136,7.2359898 2.8014182e-6 0 1 0.119409,-0.20509 15.547136,7.2359898 2.8014182e-6 0 0 -0.119409,0.20509 z m 0.119409,-0.20509 a 15.547136,7.2359898 2.8014182e-6 0 1 0.345235,-0.46235 15.547136,7.2359898 2.8014182e-6 0 0 -0.345235,0.46235 z m 0.345235,-0.46235 a 15.547136,7.2359898 2.8014182e-6 0 1 0.186187,-0.22709 15.547136,7.2359898 2.8014182e-6 0 0 -0.186187,0.22709 z m 0.186187,-0.22709 a 15.547136,7.2359898 2.8014182e-6 0 1 0.415959,-0.41698 15.547136,7.2359898 2.8014182e-6 0 0 -0.415959,0.41698 z m 0.415959,-0.41698 a 15.547136,7.2359898 2.8014182e-6 0 1 0.261024,-0.24253 15.547136,7.2359898 2.8014182e-6 0 0 -0.261024,0.24253 z m 0.261024,-0.24253 a 15.547136,7.2359898 2.8014182e-6 0 1 0.474184,-0.37274 15.547136,7.2359898 2.8014182e-6 0 0 -0.474184,0.37274 z m 0.474184,-0.37274 a 15.547136,7.2359898 2.8014182e-6 0 1 0.342603,-0.25182 15.547136,7.2359898 2.8014182e-6 0 0 -0.342603,0.25182 z m 0.342603,-0.25182 a 15.547136,7.2359898 2.8014182e-6 0 1 0.513658,-0.32465 15.547136,7.2359898 2.8014182e-6 0 0 -0.513658,0.32465 z m 0.513658,-0.32465 a 15.547136,7.2359898 2.8014182e-6 0 1 0.43619,-0.25931 15.547136,7.2359898 2.8014182e-6 0 0 -0.43619,0.25931 z m 0.43619,-0.25931 a 15.547136,7.2359898 2.8014182e-6 0 1 0.898696,-0.46304 15.547136,7.2359898 2.8014182e-6 0 0 -0.898696,0.46304 z m 0.898696,-0.46304 a 15.547136,7.2359898 2.8014182e-6 0 1 2.403158,-0.91451 15.547136,7.2359898 2.8014182e-6 0 0 -2.403158,0.91451 z"
           id="path897-0-6" />
        <path
           inkscape:connector-curvature="0"
           style="opacity:1;fill:#7b43ac;fill-opacity:1;stroke:none;stroke-width:0.36684787;stroke-linejoin:round;stroke-miterlimit:4;stroke-dasharray:none;stroke-dashoffset:152.99526978;stroke-opacity:0.91627909"
           d="m 34.433965,225.05727 a 15.547136,7.2359898 2.8014182e-6 0 1 1.324031,0.0399 15.547136,7.2359898 2.8014182e-6 0 0 -1.324031,-0.0399 z m 1.324031,0.0399 a 15.547136,7.2359898 2.8014182e-6 0 1 0.76876,0.0488 15.547136,7.2359898 2.8014182e-6 0 0 -0.76876,-0.0488 z m 0.76876,0.0488 a 15.547136,7.2359898 2.8014182e-6 0 1 0.766458,0.059 15.547136,7.2359898 2.8014182e-6 0 0 -0.766458,-0.059 z m 0.766458,0.059 a 15.547136,7.2359898 2.8014182e-6 0 1 0.760043,0.0851 15.547136,7.2359898 2.8014182e-6 0 0 -0.760043,-0.0851 z m 0.760043,0.0851 a 15.547136,7.2359898 2.8014182e-6 0 1 0.74376,0.0937 15.547136,7.2359898 2.8014182e-6 0 0 -0.74376,-0.0937 z m 0.74376,0.0937 a 15.547136,7.2359898 2.8014182e-6 0 1 0.734385,0.11911 15.547136,7.2359898 2.8014182e-6 0 0 -0.734385,-0.11911 z m 0.734385,0.11911 a 15.547136,7.2359898 2.8014182e-6 0 1 0.726984,0.12908 15.547136,7.2359898 2.8014182e-6 0 0 -0.726984,-0.12908 z m 0.726984,0.12908 a 15.547136,7.2359898 2.8014182e-6 0 1 0.705764,0.1529 15.547136,7.2359898 2.8014182e-6 0 0 -0.705764,-0.1529 z m 0.705764,0.1529 a 15.547136,7.2359898 2.8014182e-6 0 1 0.689156,0.16086 15.547136,7.2359898 2.8014182e-6 0 0 -0.689156,-0.16086 z m 0.689156,0.16086 a 15.547136,7.2359898 2.8014182e-6 0 1 0.674351,0.18603 15.547136,7.2359898 2.8014182e-6 0 0 -0.674351,-0.18603 z m 0.674351,0.18603 a 15.547136,7.2359898 2.8014182e-6 0 1 0.651984,0.19216 15.547136,7.2359898 2.8014182e-6 0 0 -0.651984,-0.19216 z m 0.651984,0.19216 a 15.547136,7.2359898 2.8014182e-6 0 1 0.622375,0.21371 15.547136,7.2359898 2.8014182e-6 0 0 -0.622375,-0.21371 z m 0.622375,0.21371 a 15.547136,7.2359898 2.8014182e-6 0 1 0.617114,0.22505 15.547136,7.2359898 2.8014182e-6 0 0 -0.617114,-0.22505 z m 0.617114,0.22505 a 15.547136,7.2359898 2.8014182e-6 0 1 0.981265,0.41313 15.547136,7.2359898 2.8014182e-6 0 0 -0.981265,-0.41313 z m 0.981265,0.41313 a 15.547136,7.2359898 2.8014182e-6 0 1 0.95626,0.49207 15.547136,7.2359898 2.8014182e-6 0 0 -0.95626,-0.49207 z m 0.95626,0.49207 a 15.547136,7.2359898 2.8014182e-6 0 1 0.554944,0.3403 15.547136,7.2359898 2.8014182e-6 0 0 -0.554944,-0.3403 z m 0.554944,0.3403 a 15.547136,7.2359898 2.8014182e-6 0 1 0.368259,0.23231 15.547136,7.2359898 2.8014182e-6 0 0 -0.368259,-0.23231 z m 0.368259,0.23231 a 15.547136,7.2359898 2.8014182e-6 0 1 0.535042,0.40678 15.547136,7.2359898 2.8014182e-6 0 0 -0.535042,-0.40678 z m 0.535042,0.40678 a 15.547136,7.2359898 2.8014182e-6 0 1 0.262503,0.206 15.547136,7.2359898 2.8014182e-6 0 0 -0.262503,-0.206 z m 0.262503,0.206 a 15.547136,7.2359898 2.8014182e-6 0 1 0.499677,0.48232 15.547136,7.2359898 2.8014182e-6 0 0 -0.499677,-0.48232 z m 0.499677,0.48232 a 15.547136,7.2359898 2.8014182e-6 0 1 0.162008,0.16198 15.547136,7.2359898 2.8014182e-6 0 0 -0.162008,-0.16198 z m 0.162008,0.16198 a 15.547136,7.2359898 2.8014182e-6 0 1 0.429119,0.54811 15.547136,7.2359898 2.8014182e-6 0 0 -0.429119,-0.54811 z m 0.429119,0.54811 a 15.547136,7.2359898 2.8014182e-6 0 1 0.09474,0.1266 15.547136,7.2359898 2.8014182e-6 0 0 -0.09474,-0.1266 z m 0.09474,0.1266 a 15.547136,7.2359898 2.8014182e-6 0 1 0.334051,0.61049 15.547136,7.2359898 2.8014182e-6 0 0 -0.334051,-0.61049 z m 0.334051,0.61049 a 15.547136,7.2359898 2.8014182e-6 0 1 0.04326,0.084 15.547136,7.2359898 2.8014182e-6 0 0 -0.04326,-0.084 z m 0.04326,0.084 a 15.547136,7.2359898 2.8014182e-6 0 1 0.216943,0.67107 15.547136,7.2359898 2.8014182e-6 0 0 -0.216943,-0.67107 z m 0.216943,0.67107 a 15.547136,7.2359898 2.8014182e-6 0 1 0.01101,0.0376 15.547136,7.2359898 2.8014182e-6 0 0 -0.01101,-0.0376 z m 0.01101,0.0376 a 15.547136,7.2359898 2.8014182e-6 0 1 0.07615,0.71713 15.547136,7.2359898 2.8014182e-6 0 0 -0.07615,-0.71713 z m 0.07615,0.71713 a 15.547136,7.2359898 2.8014182e-6 0 1 -4.543977,5.11654 15.547136,7.2359898 2.8014182e-6 0 1 -21.986975,0 15.547136,7.2359898 2.8014182e-6 0 1 -4.543976,-5.11745 15.547136,7.2359898 2.8014182e-6 0 0 0,8.8e-4 h -0.0081 v 5.22045 h 0.0082 a 15.547134,6.2282433 3.040592e-6 0 0 4.543813,4.40396 15.547134,6.2282433 3.040592e-6 0 0 21.986976,0 15.547134,6.2282433 3.040592e-6 0 0 4.543977,-4.40396 h 0.0097 v -5.22045 z m -31.074925,-8.2e-4 a 15.547136,7.2359898 2.8014182e-6 0 1 0.04178,-0.46214 15.547136,7.2359898 2.8014182e-6 0 0 -0.04178,0.46214 z m 0.04178,-0.46214 a 15.547136,7.2359898 2.8014182e-6 0 1 0.0278,-0.20122 15.547136,7.2359898 2.8014182e-6 0 0 -0.0278,0.20122 z m 0.0278,-0.20122 a 15.547136,7.2359898 2.8014182e-6 0 1 0.157075,-0.5395 15.547136,7.2359898 2.8014182e-6 0 0 -0.157075,0.5395 z m 0.157075,-0.5395 a 15.547136,7.2359898 2.8014182e-6 0 1 0.06513,-0.18262 15.547136,7.2359898 2.8014182e-6 0 0 -0.06513,0.18262 z m 0.06513,-0.18262 a 15.547136,7.2359898 2.8014182e-6 0 1 0.25905,-0.50479 15.547136,7.2359898 2.8014182e-6 0 0 -0.25905,0.50479 z m 0.25905,-0.50479 a 15.547136,7.2359898 2.8014182e-6 0 1 0.119409,-0.20508 15.547136,7.2359898 2.8014182e-6 0 0 -0.119409,0.20508 z m 0.119409,-0.20508 a 15.547136,7.2359898 2.8014182e-6 0 1 0.345235,-0.46236 15.547136,7.2359898 2.8014182e-6 0 0 -0.345235,0.46236 z m 0.345235,-0.46236 a 15.547136,7.2359898 2.8014182e-6 0 1 0.186187,-0.2271 15.547136,7.2359898 2.8014182e-6 0 0 -0.186187,0.2271 z m 0.186187,-0.2271 a 15.547136,7.2359898 2.8014182e-6 0 1 0.415958,-0.41708 15.547136,7.2359898 2.8014182e-6 0 0 -0.41596,0.41698 z m 0.415958,-0.41708 a 15.547136,7.2359898 2.8014182e-6 0 1 0.261023,-0.24252 15.547136,7.2359898 2.8014182e-6 0 0 -0.261023,0.24252 z m 0.261023,-0.24252 a 15.547136,7.2359898 2.8014182e-6 0 1 0.474184,-0.37275 15.547136,7.2359898 2.8014182e-6 0 0 -0.474184,0.37275 z m 0.474178,-0.37275 a 15.547136,7.2359898 2.8014182e-6 0 1 0.342604,-0.25182 15.547136,7.2359898 2.8014182e-6 0 0 -0.342604,0.25182 z m 0.342604,-0.25182 a 15.547136,7.2359898 2.8014182e-6 0 1 0.513658,-0.32465 15.547136,7.2359898 2.8014182e-6 0 0 -0.513658,0.32465 z m 0.513658,-0.32465 a 15.547136,7.2359898 2.8014182e-6 0 1 0.43619,-0.25931 15.547136,7.2359898 2.8014182e-6 0 0 -0.43619,0.25931 z m 0.43619,-0.25931 a 15.547136,7.2359898 2.8014182e-6 0 1 0.898696,-0.46303 15.547136,7.2359898 2.8014182e-6 0 0 -0.898696,0.46303 z m 0.898696,-0.46303 a 15.547136,7.2359898 2.8014182e-6 0 1 2.403158,-0.9145 15.547136,7.2359898 2.8014182e-6 0 0 -2.403158,0.9145 z"
           id="path897-0-5" />
      </g>
      <path
         transform="matrix(0.26458333,0,0,0.26458333,-2.8572235e-6,204.39534)"
         id="path1044-5"
         d="M 123.64062,8.4023438 A 31.29125,31.158813 0 0 0 92.349609,39.560547 31.29125,31.158813 0 0 0 123.64062,70.71875 31.29125,31.158813 0 0 0 154.93164,39.560547 31.29125,31.158813 0 0 0 123.64062,8.4023438 Z m 0,12.9335942 c 3.36541,0 6.07422,2.710729 6.07422,6.076171 v 6.074219 h 6.07422 c 3.36541,0 6.07617,2.708814 6.07617,6.074219 0,3.365405 -2.71076,6.074219 -6.07617,6.074219 h -6.07422 v 6.076172 c 0,3.365441 -2.70881,6.074218 -6.07422,6.074218 -3.3654,0 -6.07617,-2.708777 -6.07617,-6.074218 v -6.076172 h -6.07422 c -3.36541,0 -6.07421,-2.708814 -6.07421,-6.074219 0,-3.365405 2.7088,-6.074219 6.07421,-6.074219 h 6.07422 v -6.074219 c 0,-3.365442 2.71077,-6.076171 6.07617,-6.076171 z"
         style="opacity:1;fill:#7b43ac;fill-opacity:1;stroke:none;stroke-width:3.93338084;stroke-linejoin:round;stroke-miterlimit:4;stroke-dasharray:none;stroke-dashoffset:152.99526978;stroke-opacity:0.91627909"
         inkscape:connector-curvature="0" />
    </g>
  </g>
</svg>
